<mxfile host="app.diagrams.net" agent="Mozilla/5.0 (Windows NT 10.0; Win64; x64) AppleWebKit/537.36 (KHTML, like Gecko) Chrome/138.0.0.0 Safari/537.36" version="27.1.6">
  <diagram name="페이지-1" id="9Yp48N8qVNjGCj0_3FKh">
    <mxGraphModel dx="1722" dy="648" grid="1" gridSize="10" guides="1" tooltips="1" connect="1" arrows="1" fold="1" page="1" pageScale="1" pageWidth="827" pageHeight="1169" math="0" shadow="0">
      <root>
        <mxCell id="0" />
        <mxCell id="1" parent="0" />
        <mxCell id="KM6vkm5x7V_shXiX3Qa5-1" value="서울리전" style="points=[[0,0],[0.25,0],[0.5,0],[0.75,0],[1,0],[1,0.25],[1,0.5],[1,0.75],[1,1],[0.75,1],[0.5,1],[0.25,1],[0,1],[0,0.75],[0,0.5],[0,0.25]];outlineConnect=0;gradientColor=none;html=1;whiteSpace=wrap;fontSize=12;fontStyle=0;container=1;pointerEvents=0;collapsible=0;recursiveResize=0;shape=mxgraph.aws4.group;grIcon=mxgraph.aws4.group_region;strokeColor=#00A4A6;fillColor=none;verticalAlign=top;align=left;spacingLeft=30;fontColor=#147EBA;dashed=1;" vertex="1" parent="1">
          <mxGeometry x="30" y="290" width="790" height="1000" as="geometry" />
        </mxCell>
        <mxCell id="KM6vkm5x7V_shXiX3Qa5-24" value="Public subnet" style="points=[[0,0],[0.25,0],[0.5,0],[0.75,0],[1,0],[1,0.25],[1,0.5],[1,0.75],[1,1],[0.75,1],[0.5,1],[0.25,1],[0,1],[0,0.75],[0,0.5],[0,0.25]];outlineConnect=0;gradientColor=none;html=1;whiteSpace=wrap;fontSize=12;fontStyle=0;container=1;pointerEvents=0;collapsible=0;recursiveResize=0;shape=mxgraph.aws4.group;grIcon=mxgraph.aws4.group_security_group;grStroke=0;strokeColor=#7AA116;fillColor=#F2F6E8;verticalAlign=top;align=left;spacingLeft=30;fontColor=#248814;dashed=0;" vertex="1" parent="KM6vkm5x7V_shXiX3Qa5-1">
          <mxGeometry x="384" y="70" width="106" height="109.8" as="geometry" />
        </mxCell>
        <mxCell id="KM6vkm5x7V_shXiX3Qa5-120" value="" style="outlineConnect=0;dashed=0;verticalLabelPosition=bottom;verticalAlign=top;align=center;html=1;shape=mxgraph.aws3.vpc_nat_gateway;fillColor=#F58534;gradientColor=none;" vertex="1" parent="KM6vkm5x7V_shXiX3Qa5-24">
          <mxGeometry x="20" y="30" width="69" height="72" as="geometry" />
        </mxCell>
        <mxCell id="KM6vkm5x7V_shXiX3Qa5-25" value="Public subnet" style="points=[[0,0],[0.25,0],[0.5,0],[0.75,0],[1,0],[1,0.25],[1,0.5],[1,0.75],[1,1],[0.75,1],[0.5,1],[0.25,1],[0,1],[0,0.75],[0,0.5],[0,0.25]];outlineConnect=0;gradientColor=none;html=1;whiteSpace=wrap;fontSize=12;fontStyle=0;container=1;pointerEvents=0;collapsible=0;recursiveResize=0;shape=mxgraph.aws4.group;grIcon=mxgraph.aws4.group_security_group;grStroke=0;strokeColor=#7AA116;fillColor=#F2F6E8;verticalAlign=top;align=left;spacingLeft=30;fontColor=#248814;dashed=0;" vertex="1" parent="KM6vkm5x7V_shXiX3Qa5-1">
          <mxGeometry x="280" y="70" width="104" height="109.80000000000001" as="geometry" />
        </mxCell>
        <mxCell id="KM6vkm5x7V_shXiX3Qa5-121" value="" style="outlineConnect=0;dashed=0;verticalLabelPosition=bottom;verticalAlign=top;align=center;html=1;shape=mxgraph.aws3.vpc_nat_gateway;fillColor=#F58534;gradientColor=none;" vertex="1" parent="KM6vkm5x7V_shXiX3Qa5-25">
          <mxGeometry x="17.5" y="37.80000000000001" width="69" height="72" as="geometry" />
        </mxCell>
        <mxCell id="KM6vkm5x7V_shXiX3Qa5-90" value="Private subnet" style="points=[[0,0],[0.25,0],[0.5,0],[0.75,0],[1,0],[1,0.25],[1,0.5],[1,0.75],[1,1],[0.75,1],[0.5,1],[0.25,1],[0,1],[0,0.75],[0,0.5],[0,0.25]];outlineConnect=0;gradientColor=none;html=1;whiteSpace=wrap;fontSize=12;fontStyle=0;container=1;pointerEvents=0;collapsible=0;recursiveResize=0;shape=mxgraph.aws4.group;grIcon=mxgraph.aws4.group_security_group;grStroke=0;strokeColor=#00A4A6;fillColor=#E6F6F7;verticalAlign=top;align=left;spacingLeft=30;fontColor=#147EBA;dashed=0;" vertex="1" parent="KM6vkm5x7V_shXiX3Qa5-1">
          <mxGeometry x="10" y="500" width="780" height="480" as="geometry" />
        </mxCell>
        <mxCell id="KM6vkm5x7V_shXiX3Qa5-84" value="StandbyDB" style="points=[[0,0],[0.25,0],[0.5,0],[0.75,0],[1,0],[1,0.25],[1,0.5],[1,0.75],[1,1],[0.75,1],[0.5,1],[0.25,1],[0,1],[0,0.75],[0,0.5],[0,0.25]];outlineConnect=0;gradientColor=none;html=1;whiteSpace=wrap;fontSize=12;fontStyle=0;container=1;pointerEvents=0;collapsible=0;recursiveResize=0;shape=mxgraph.aws4.group;grIcon=mxgraph.aws4.group_ec2_instance_contents;strokeColor=#D86613;fillColor=none;verticalAlign=top;align=left;spacingLeft=30;fontColor=#D86613;dashed=0;" vertex="1" parent="KM6vkm5x7V_shXiX3Qa5-90">
          <mxGeometry x="485" y="200" width="130" height="130" as="geometry" />
        </mxCell>
        <mxCell id="KM6vkm5x7V_shXiX3Qa5-88" value="" style="outlineConnect=0;dashed=0;verticalLabelPosition=bottom;verticalAlign=top;align=center;html=1;shape=mxgraph.aws3.oracle_db_instance;fillColor=#2E73B8;gradientColor=none;" vertex="1" parent="KM6vkm5x7V_shXiX3Qa5-84">
          <mxGeometry x="34" y="40" width="60" height="64.5" as="geometry" />
        </mxCell>
        <mxCell id="KM6vkm5x7V_shXiX3Qa5-86" value="&lt;font style=&quot;font-size: 9px;&quot;&gt;Dataguard&lt;/font&gt;" style="ellipse;whiteSpace=wrap;html=1;" vertex="1" parent="KM6vkm5x7V_shXiX3Qa5-90">
          <mxGeometry x="368.25" y="252.25" width="60" height="40" as="geometry" />
        </mxCell>
        <mxCell id="KM6vkm5x7V_shXiX3Qa5-92" style="edgeStyle=orthogonalEdgeStyle;rounded=0;orthogonalLoop=1;jettySize=auto;html=1;exitX=0;exitY=0.5;exitDx=0;exitDy=0;exitPerimeter=0;entryX=1;entryY=0.5;entryDx=0;entryDy=0;" edge="1" parent="KM6vkm5x7V_shXiX3Qa5-90" source="KM6vkm5x7V_shXiX3Qa5-88" target="KM6vkm5x7V_shXiX3Qa5-86">
          <mxGeometry relative="1" as="geometry" />
        </mxCell>
        <mxCell id="KM6vkm5x7V_shXiX3Qa5-85" value="PrimaryDB" style="points=[[0,0],[0.25,0],[0.5,0],[0.75,0],[1,0],[1,0.25],[1,0.5],[1,0.75],[1,1],[0.75,1],[0.5,1],[0.25,1],[0,1],[0,0.75],[0,0.5],[0,0.25]];outlineConnect=0;gradientColor=none;html=1;whiteSpace=wrap;fontSize=12;fontStyle=0;container=1;pointerEvents=0;collapsible=0;recursiveResize=0;shape=mxgraph.aws4.group;grIcon=mxgraph.aws4.group_ec2_instance_contents;strokeColor=#D86613;fillColor=none;verticalAlign=top;align=left;spacingLeft=30;fontColor=#D86613;dashed=0;" vertex="1" parent="KM6vkm5x7V_shXiX3Qa5-90">
          <mxGeometry x="165" y="200" width="130" height="130" as="geometry" />
        </mxCell>
        <mxCell id="KM6vkm5x7V_shXiX3Qa5-87" value="" style="outlineConnect=0;dashed=0;verticalLabelPosition=bottom;verticalAlign=top;align=center;html=1;shape=mxgraph.aws3.oracle_db_instance;fillColor=#2E73B8;gradientColor=none;" vertex="1" parent="KM6vkm5x7V_shXiX3Qa5-85">
          <mxGeometry x="24.5" y="40" width="60" height="64.5" as="geometry" />
        </mxCell>
        <mxCell id="KM6vkm5x7V_shXiX3Qa5-91" style="edgeStyle=orthogonalEdgeStyle;rounded=0;orthogonalLoop=1;jettySize=auto;html=1;exitX=1;exitY=0.5;exitDx=0;exitDy=0;exitPerimeter=0;entryX=0;entryY=0.5;entryDx=0;entryDy=0;" edge="1" parent="KM6vkm5x7V_shXiX3Qa5-90" source="KM6vkm5x7V_shXiX3Qa5-87" target="KM6vkm5x7V_shXiX3Qa5-86">
          <mxGeometry relative="1" as="geometry" />
        </mxCell>
        <mxCell id="KM6vkm5x7V_shXiX3Qa5-83" value="MonitoringServer" style="points=[[0,0],[0.25,0],[0.5,0],[0.75,0],[1,0],[1,0.25],[1,0.5],[1,0.75],[1,1],[0.75,1],[0.5,1],[0.25,1],[0,1],[0,0.75],[0,0.5],[0,0.25]];outlineConnect=0;gradientColor=none;html=1;whiteSpace=wrap;fontSize=12;fontStyle=0;container=1;pointerEvents=0;collapsible=0;recursiveResize=0;shape=mxgraph.aws4.group;grIcon=mxgraph.aws4.group_ec2_instance_contents;strokeColor=#D86613;fillColor=none;verticalAlign=top;align=left;spacingLeft=30;fontColor=#D86613;dashed=0;" vertex="1" parent="KM6vkm5x7V_shXiX3Qa5-90">
          <mxGeometry x="330" y="330" width="130" height="130" as="geometry" />
        </mxCell>
        <mxCell id="KM6vkm5x7V_shXiX3Qa5-89" value="Zabbix" style="verticalLabelPosition=bottom;html=1;verticalAlign=top;align=center;strokeColor=none;fillColor=#00BEF2;shape=mxgraph.azure.computer;pointerEvents=1;" vertex="1" parent="KM6vkm5x7V_shXiX3Qa5-83">
          <mxGeometry x="40" y="42.5" width="50" height="45" as="geometry" />
        </mxCell>
        <mxCell id="KM6vkm5x7V_shXiX3Qa5-93" value="Backup&lt;div&gt;Storage&lt;/div&gt;" style="shape=cylinder3;whiteSpace=wrap;html=1;boundedLbl=1;backgroundOutline=1;size=15;" vertex="1" parent="KM6vkm5x7V_shXiX3Qa5-90">
          <mxGeometry x="60" y="330" width="60" height="80" as="geometry" />
        </mxCell>
        <mxCell id="KM6vkm5x7V_shXiX3Qa5-98" style="edgeStyle=orthogonalEdgeStyle;rounded=0;orthogonalLoop=1;jettySize=auto;html=1;exitX=1;exitY=0.5;exitDx=0;exitDy=0;exitPerimeter=0;entryX=0.5;entryY=1;entryDx=0;entryDy=0;" edge="1" parent="KM6vkm5x7V_shXiX3Qa5-90" source="KM6vkm5x7V_shXiX3Qa5-89" target="KM6vkm5x7V_shXiX3Qa5-84">
          <mxGeometry relative="1" as="geometry" />
        </mxCell>
        <mxCell id="KM6vkm5x7V_shXiX3Qa5-99" style="edgeStyle=orthogonalEdgeStyle;rounded=0;orthogonalLoop=1;jettySize=auto;html=1;exitX=0;exitY=0.5;exitDx=0;exitDy=0;exitPerimeter=0;entryX=0.5;entryY=1;entryDx=0;entryDy=0;" edge="1" parent="KM6vkm5x7V_shXiX3Qa5-90" source="KM6vkm5x7V_shXiX3Qa5-89" target="KM6vkm5x7V_shXiX3Qa5-85">
          <mxGeometry relative="1" as="geometry" />
        </mxCell>
        <mxCell id="KM6vkm5x7V_shXiX3Qa5-102" value="" style="endArrow=none;html=1;rounded=0;" edge="1" parent="KM6vkm5x7V_shXiX3Qa5-90">
          <mxGeometry width="50" height="50" relative="1" as="geometry">
            <mxPoint x="740" y="80" as="sourcePoint" />
            <mxPoint x="50" y="80" as="targetPoint" />
          </mxGeometry>
        </mxCell>
        <mxCell id="KM6vkm5x7V_shXiX3Qa5-114" style="edgeStyle=orthogonalEdgeStyle;rounded=0;orthogonalLoop=1;jettySize=auto;html=1;exitX=0;exitY=0.5;exitDx=0;exitDy=0;exitPerimeter=0;entryX=0.5;entryY=0;entryDx=0;entryDy=0;entryPerimeter=0;" edge="1" parent="KM6vkm5x7V_shXiX3Qa5-90" source="KM6vkm5x7V_shXiX3Qa5-87" target="KM6vkm5x7V_shXiX3Qa5-93">
          <mxGeometry relative="1" as="geometry" />
        </mxCell>
        <mxCell id="KM6vkm5x7V_shXiX3Qa5-26" value="Private subnet" style="points=[[0,0],[0.25,0],[0.5,0],[0.75,0],[1,0],[1,0.25],[1,0.5],[1,0.75],[1,1],[0.75,1],[0.5,1],[0.25,1],[0,1],[0,0.75],[0,0.5],[0,0.25]];outlineConnect=0;gradientColor=none;html=1;whiteSpace=wrap;fontSize=12;fontStyle=0;container=1;pointerEvents=0;collapsible=0;recursiveResize=0;shape=mxgraph.aws4.group;grIcon=mxgraph.aws4.group_security_group;grStroke=0;strokeColor=#00A4A6;fillColor=#E6F6F7;verticalAlign=top;align=left;spacingLeft=30;fontColor=#147EBA;dashed=0;" vertex="1" parent="KM6vkm5x7V_shXiX3Qa5-1">
          <mxGeometry x="460" y="200" width="330" height="300" as="geometry" />
        </mxCell>
        <mxCell id="KM6vkm5x7V_shXiX3Qa5-27" value="Private subnet" style="points=[[0,0],[0.25,0],[0.5,0],[0.75,0],[1,0],[1,0.25],[1,0.5],[1,0.75],[1,1],[0.75,1],[0.5,1],[0.25,1],[0,1],[0,0.75],[0,0.5],[0,0.25]];outlineConnect=0;gradientColor=none;html=1;whiteSpace=wrap;fontSize=12;fontStyle=0;container=1;pointerEvents=0;collapsible=0;recursiveResize=0;shape=mxgraph.aws4.group;grIcon=mxgraph.aws4.group_security_group;grStroke=0;strokeColor=#00A4A6;fillColor=#E6F6F7;verticalAlign=top;align=left;spacingLeft=30;fontColor=#147EBA;dashed=0;" vertex="1" parent="KM6vkm5x7V_shXiX3Qa5-1">
          <mxGeometry x="10" y="181.5" width="330" height="318.5" as="geometry" />
        </mxCell>
        <mxCell id="KM6vkm5x7V_shXiX3Qa5-33" style="edgeStyle=orthogonalEdgeStyle;rounded=0;orthogonalLoop=1;jettySize=auto;html=1;exitX=0.5;exitY=0;exitDx=0;exitDy=0;entryX=0;entryY=0.5;entryDx=0;entryDy=0;entryPerimeter=0;" edge="1" parent="KM6vkm5x7V_shXiX3Qa5-1" source="KM6vkm5x7V_shXiX3Qa5-6" target="KM6vkm5x7V_shXiX3Qa5-121">
          <mxGeometry relative="1" as="geometry" />
        </mxCell>
        <mxCell id="KM6vkm5x7V_shXiX3Qa5-6" value="Fargate" style="fillColor=none;strokeColor=#147EBA;dashed=1;verticalAlign=top;fontStyle=0;fontColor=#147EBA;whiteSpace=wrap;html=1;" vertex="1" parent="KM6vkm5x7V_shXiX3Qa5-1">
          <mxGeometry x="25" y="215.5" width="285" height="254.5" as="geometry" />
        </mxCell>
        <mxCell id="KM6vkm5x7V_shXiX3Qa5-103" style="edgeStyle=orthogonalEdgeStyle;rounded=0;orthogonalLoop=1;jettySize=auto;html=1;exitX=0.25;exitY=1;exitDx=0;exitDy=0;exitPerimeter=0;" edge="1" parent="KM6vkm5x7V_shXiX3Qa5-1" source="KM6vkm5x7V_shXiX3Qa5-9">
          <mxGeometry relative="1" as="geometry">
            <mxPoint x="62.16666666666674" y="580" as="targetPoint" />
          </mxGeometry>
        </mxCell>
        <mxCell id="KM6vkm5x7V_shXiX3Qa5-9" value="" style="sketch=0;points=[[0,0,0],[0.25,0,0],[0.5,0,0],[0.75,0,0],[1,0,0],[0,1,0],[0.25,1,0],[0.5,1,0],[0.75,1,0],[1,1,0],[0,0.25,0],[0,0.5,0],[0,0.75,0],[1,0.25,0],[1,0.5,0],[1,0.75,0]];outlineConnect=0;fontColor=#232F3E;fillColor=#ED7100;strokeColor=#ffffff;dashed=0;verticalLabelPosition=bottom;verticalAlign=top;align=center;html=1;fontSize=12;fontStyle=0;aspect=fixed;shape=mxgraph.aws4.resourceIcon;resIcon=mxgraph.aws4.ecs;" vertex="1" parent="KM6vkm5x7V_shXiX3Qa5-1">
          <mxGeometry x="50" y="302.25" width="49" height="49" as="geometry" />
        </mxCell>
        <mxCell id="KM6vkm5x7V_shXiX3Qa5-104" style="edgeStyle=orthogonalEdgeStyle;rounded=0;orthogonalLoop=1;jettySize=auto;html=1;exitX=0.25;exitY=1;exitDx=0;exitDy=0;exitPerimeter=0;" edge="1" parent="KM6vkm5x7V_shXiX3Qa5-1" source="KM6vkm5x7V_shXiX3Qa5-8">
          <mxGeometry relative="1" as="geometry">
            <mxPoint x="122.16666666666674" y="580" as="targetPoint" />
          </mxGeometry>
        </mxCell>
        <mxCell id="KM6vkm5x7V_shXiX3Qa5-8" value="" style="sketch=0;points=[[0,0,0],[0.25,0,0],[0.5,0,0],[0.75,0,0],[1,0,0],[0,1,0],[0.25,1,0],[0.5,1,0],[0.75,1,0],[1,1,0],[0,0.25,0],[0,0.5,0],[0,0.75,0],[1,0.25,0],[1,0.5,0],[1,0.75,0]];outlineConnect=0;fontColor=#232F3E;fillColor=#ED7100;strokeColor=#ffffff;dashed=0;verticalLabelPosition=bottom;verticalAlign=top;align=center;html=1;fontSize=12;fontStyle=0;aspect=fixed;shape=mxgraph.aws4.resourceIcon;resIcon=mxgraph.aws4.ecs;" vertex="1" parent="KM6vkm5x7V_shXiX3Qa5-1">
          <mxGeometry x="110" y="302.25" width="49" height="49" as="geometry" />
        </mxCell>
        <mxCell id="KM6vkm5x7V_shXiX3Qa5-105" style="edgeStyle=orthogonalEdgeStyle;rounded=0;orthogonalLoop=1;jettySize=auto;html=1;exitX=0.25;exitY=1;exitDx=0;exitDy=0;exitPerimeter=0;" edge="1" parent="KM6vkm5x7V_shXiX3Qa5-1" source="KM6vkm5x7V_shXiX3Qa5-7">
          <mxGeometry relative="1" as="geometry">
            <mxPoint x="182.16666666666674" y="580" as="targetPoint" />
          </mxGeometry>
        </mxCell>
        <mxCell id="KM6vkm5x7V_shXiX3Qa5-7" value="" style="sketch=0;points=[[0,0,0],[0.25,0,0],[0.5,0,0],[0.75,0,0],[1,0,0],[0,1,0],[0.25,1,0],[0.5,1,0],[0.75,1,0],[1,1,0],[0,0.25,0],[0,0.5,0],[0,0.75,0],[1,0.25,0],[1,0.5,0],[1,0.75,0]];outlineConnect=0;fontColor=#232F3E;fillColor=#ED7100;strokeColor=#ffffff;dashed=0;verticalLabelPosition=bottom;verticalAlign=top;align=center;html=1;fontSize=12;fontStyle=0;aspect=fixed;shape=mxgraph.aws4.resourceIcon;resIcon=mxgraph.aws4.ecs;" vertex="1" parent="KM6vkm5x7V_shXiX3Qa5-1">
          <mxGeometry x="170" y="302.25" width="49" height="49" as="geometry" />
        </mxCell>
        <mxCell id="KM6vkm5x7V_shXiX3Qa5-10" value="" style="sketch=0;outlineConnect=0;fontColor=#232F3E;gradientColor=none;strokeColor=#ffffff;fillColor=#232F3E;dashed=0;verticalLabelPosition=middle;verticalAlign=bottom;align=center;html=1;whiteSpace=wrap;fontSize=10;fontStyle=1;spacing=3;shape=mxgraph.aws4.productIcon;prIcon=mxgraph.aws4.fargate;" vertex="1" parent="KM6vkm5x7V_shXiX3Qa5-1">
          <mxGeometry x="25" y="216.5" width="40" height="60" as="geometry" />
        </mxCell>
        <mxCell id="KM6vkm5x7V_shXiX3Qa5-106" style="edgeStyle=orthogonalEdgeStyle;rounded=0;orthogonalLoop=1;jettySize=auto;html=1;exitX=0.25;exitY=1;exitDx=0;exitDy=0;exitPerimeter=0;" edge="1" parent="KM6vkm5x7V_shXiX3Qa5-1" source="KM6vkm5x7V_shXiX3Qa5-14">
          <mxGeometry relative="1" as="geometry">
            <mxPoint x="243" y="580" as="targetPoint" />
          </mxGeometry>
        </mxCell>
        <mxCell id="KM6vkm5x7V_shXiX3Qa5-14" value="" style="sketch=0;points=[[0,0,0],[0.25,0,0],[0.5,0,0],[0.75,0,0],[1,0,0],[0,1,0],[0.25,1,0],[0.5,1,0],[0.75,1,0],[1,1,0],[0,0.25,0],[0,0.5,0],[0,0.75,0],[1,0.25,0],[1,0.5,0],[1,0.75,0]];outlineConnect=0;fontColor=#232F3E;fillColor=#ED7100;strokeColor=#ffffff;dashed=0;verticalLabelPosition=bottom;verticalAlign=top;align=center;html=1;fontSize=12;fontStyle=0;aspect=fixed;shape=mxgraph.aws4.resourceIcon;resIcon=mxgraph.aws4.ecs;" vertex="1" parent="KM6vkm5x7V_shXiX3Qa5-1">
          <mxGeometry x="231" y="302.25" width="49" height="49" as="geometry" />
        </mxCell>
        <mxCell id="KM6vkm5x7V_shXiX3Qa5-34" style="edgeStyle=orthogonalEdgeStyle;rounded=0;orthogonalLoop=1;jettySize=auto;html=1;exitX=0.5;exitY=0;exitDx=0;exitDy=0;entryX=1;entryY=0.5;entryDx=0;entryDy=0;entryPerimeter=0;" edge="1" parent="KM6vkm5x7V_shXiX3Qa5-1" source="KM6vkm5x7V_shXiX3Qa5-18" target="KM6vkm5x7V_shXiX3Qa5-120">
          <mxGeometry relative="1" as="geometry" />
        </mxCell>
        <mxCell id="KM6vkm5x7V_shXiX3Qa5-18" value="Fargate" style="fillColor=none;strokeColor=#147EBA;dashed=1;verticalAlign=top;fontStyle=0;fontColor=#147EBA;whiteSpace=wrap;html=1;" vertex="1" parent="KM6vkm5x7V_shXiX3Qa5-1">
          <mxGeometry x="490" y="216.5" width="285" height="253.5" as="geometry" />
        </mxCell>
        <mxCell id="KM6vkm5x7V_shXiX3Qa5-107" style="edgeStyle=orthogonalEdgeStyle;rounded=0;orthogonalLoop=1;jettySize=auto;html=1;exitX=0.75;exitY=1;exitDx=0;exitDy=0;exitPerimeter=0;" edge="1" parent="KM6vkm5x7V_shXiX3Qa5-1" source="KM6vkm5x7V_shXiX3Qa5-19">
          <mxGeometry relative="1" as="geometry">
            <mxPoint x="542.166666666667" y="580" as="targetPoint" />
          </mxGeometry>
        </mxCell>
        <mxCell id="KM6vkm5x7V_shXiX3Qa5-19" value="" style="sketch=0;points=[[0,0,0],[0.25,0,0],[0.5,0,0],[0.75,0,0],[1,0,0],[0,1,0],[0.25,1,0],[0.5,1,0],[0.75,1,0],[1,1,0],[0,0.25,0],[0,0.5,0],[0,0.75,0],[1,0.25,0],[1,0.5,0],[1,0.75,0]];outlineConnect=0;fontColor=#232F3E;fillColor=#ED7100;strokeColor=#ffffff;dashed=0;verticalLabelPosition=bottom;verticalAlign=top;align=center;html=1;fontSize=12;fontStyle=0;aspect=fixed;shape=mxgraph.aws4.resourceIcon;resIcon=mxgraph.aws4.ecs;" vertex="1" parent="KM6vkm5x7V_shXiX3Qa5-1">
          <mxGeometry x="505" y="302.25" width="49" height="49" as="geometry" />
        </mxCell>
        <mxCell id="KM6vkm5x7V_shXiX3Qa5-108" style="edgeStyle=orthogonalEdgeStyle;rounded=0;orthogonalLoop=1;jettySize=auto;html=1;exitX=0.75;exitY=1;exitDx=0;exitDy=0;exitPerimeter=0;" edge="1" parent="KM6vkm5x7V_shXiX3Qa5-1" source="KM6vkm5x7V_shXiX3Qa5-20">
          <mxGeometry relative="1" as="geometry">
            <mxPoint x="607.166666666667" y="580" as="targetPoint" />
          </mxGeometry>
        </mxCell>
        <mxCell id="KM6vkm5x7V_shXiX3Qa5-20" value="" style="sketch=0;points=[[0,0,0],[0.25,0,0],[0.5,0,0],[0.75,0,0],[1,0,0],[0,1,0],[0.25,1,0],[0.5,1,0],[0.75,1,0],[1,1,0],[0,0.25,0],[0,0.5,0],[0,0.75,0],[1,0.25,0],[1,0.5,0],[1,0.75,0]];outlineConnect=0;fontColor=#232F3E;fillColor=#ED7100;strokeColor=#ffffff;dashed=0;verticalLabelPosition=bottom;verticalAlign=top;align=center;html=1;fontSize=12;fontStyle=0;aspect=fixed;shape=mxgraph.aws4.resourceIcon;resIcon=mxgraph.aws4.ecs;" vertex="1" parent="KM6vkm5x7V_shXiX3Qa5-1">
          <mxGeometry x="570" y="302.25" width="49" height="49" as="geometry" />
        </mxCell>
        <mxCell id="KM6vkm5x7V_shXiX3Qa5-109" style="edgeStyle=orthogonalEdgeStyle;rounded=0;orthogonalLoop=1;jettySize=auto;html=1;exitX=0.75;exitY=1;exitDx=0;exitDy=0;exitPerimeter=0;" edge="1" parent="KM6vkm5x7V_shXiX3Qa5-1" source="KM6vkm5x7V_shXiX3Qa5-21">
          <mxGeometry relative="1" as="geometry">
            <mxPoint x="677.166666666667" y="580" as="targetPoint" />
          </mxGeometry>
        </mxCell>
        <mxCell id="KM6vkm5x7V_shXiX3Qa5-21" value="" style="sketch=0;points=[[0,0,0],[0.25,0,0],[0.5,0,0],[0.75,0,0],[1,0,0],[0,1,0],[0.25,1,0],[0.5,1,0],[0.75,1,0],[1,1,0],[0,0.25,0],[0,0.5,0],[0,0.75,0],[1,0.25,0],[1,0.5,0],[1,0.75,0]];outlineConnect=0;fontColor=#232F3E;fillColor=#ED7100;strokeColor=#ffffff;dashed=0;verticalLabelPosition=bottom;verticalAlign=top;align=center;html=1;fontSize=12;fontStyle=0;aspect=fixed;shape=mxgraph.aws4.resourceIcon;resIcon=mxgraph.aws4.ecs;" vertex="1" parent="KM6vkm5x7V_shXiX3Qa5-1">
          <mxGeometry x="640" y="302.25" width="49" height="49" as="geometry" />
        </mxCell>
        <mxCell id="KM6vkm5x7V_shXiX3Qa5-22" value="" style="sketch=0;outlineConnect=0;fontColor=#232F3E;gradientColor=none;strokeColor=#ffffff;fillColor=#232F3E;dashed=0;verticalLabelPosition=middle;verticalAlign=bottom;align=center;html=1;whiteSpace=wrap;fontSize=10;fontStyle=1;spacing=3;shape=mxgraph.aws4.productIcon;prIcon=mxgraph.aws4.fargate;" vertex="1" parent="KM6vkm5x7V_shXiX3Qa5-1">
          <mxGeometry x="490" y="217.5" width="40" height="60" as="geometry" />
        </mxCell>
        <mxCell id="KM6vkm5x7V_shXiX3Qa5-110" style="edgeStyle=orthogonalEdgeStyle;rounded=0;orthogonalLoop=1;jettySize=auto;html=1;exitX=0.75;exitY=1;exitDx=0;exitDy=0;exitPerimeter=0;" edge="1" parent="KM6vkm5x7V_shXiX3Qa5-1" source="KM6vkm5x7V_shXiX3Qa5-23">
          <mxGeometry relative="1" as="geometry">
            <mxPoint x="747.166666666667" y="580" as="targetPoint" />
          </mxGeometry>
        </mxCell>
        <mxCell id="KM6vkm5x7V_shXiX3Qa5-23" value="" style="sketch=0;points=[[0,0,0],[0.25,0,0],[0.5,0,0],[0.75,0,0],[1,0,0],[0,1,0],[0.25,1,0],[0.5,1,0],[0.75,1,0],[1,1,0],[0,0.25,0],[0,0.5,0],[0,0.75,0],[1,0.25,0],[1,0.5,0],[1,0.75,0]];outlineConnect=0;fontColor=#232F3E;fillColor=#ED7100;strokeColor=#ffffff;dashed=0;verticalLabelPosition=bottom;verticalAlign=top;align=center;html=1;fontSize=12;fontStyle=0;aspect=fixed;shape=mxgraph.aws4.resourceIcon;resIcon=mxgraph.aws4.ecs;" vertex="1" parent="KM6vkm5x7V_shXiX3Qa5-1">
          <mxGeometry x="710" y="302.25" width="49" height="49" as="geometry" />
        </mxCell>
        <mxCell id="KM6vkm5x7V_shXiX3Qa5-68" style="edgeStyle=orthogonalEdgeStyle;rounded=0;orthogonalLoop=1;jettySize=auto;html=1;exitX=0.5;exitY=0;exitDx=0;exitDy=0;exitPerimeter=0;" edge="1" parent="KM6vkm5x7V_shXiX3Qa5-1" source="KM6vkm5x7V_shXiX3Qa5-28" target="KM6vkm5x7V_shXiX3Qa5-65">
          <mxGeometry relative="1" as="geometry" />
        </mxCell>
        <mxCell id="KM6vkm5x7V_shXiX3Qa5-28" value="" style="sketch=0;points=[[0,0,0],[0.25,0,0],[0.5,0,0],[0.75,0,0],[1,0,0],[0,1,0],[0.25,1,0],[0.5,1,0],[0.75,1,0],[1,1,0],[0,0.25,0],[0,0.5,0],[0,0.75,0],[1,0.25,0],[1,0.5,0],[1,0.75,0]];points=[[0,0,0],[0.25,0,0],[0.5,0,0],[0.75,0,0],[1,0,0],[0,1,0],[0.25,1,0],[0.5,1,0],[0.75,1,0],[1,1,0],[0,0.25,0],[0,0.5,0],[0,0.75,0],[1,0.25,0],[1,0.5,0],[1,0.75,0]];outlineConnect=0;fontColor=#232F3E;fillColor=#E7157B;strokeColor=#ffffff;dashed=0;verticalLabelPosition=bottom;verticalAlign=top;align=center;html=1;fontSize=12;fontStyle=0;aspect=fixed;shape=mxgraph.aws4.resourceIcon;resIcon=mxgraph.aws4.cloudwatch_2;" vertex="1" parent="KM6vkm5x7V_shXiX3Qa5-1">
          <mxGeometry x="355.25" y="295" width="78" height="78" as="geometry" />
        </mxCell>
        <mxCell id="KM6vkm5x7V_shXiX3Qa5-29" value="" style="outlineConnect=0;dashed=0;verticalLabelPosition=bottom;verticalAlign=top;align=center;html=1;shape=mxgraph.aws3.auto_scaling;fillColor=#F58534;gradientColor=none;" vertex="1" parent="KM6vkm5x7V_shXiX3Qa5-1">
          <mxGeometry x="355.25" y="400" width="79.5" height="76.5" as="geometry" />
        </mxCell>
        <mxCell id="KM6vkm5x7V_shXiX3Qa5-2" value="" style="points=[];aspect=fixed;html=1;align=center;shadow=0;dashed=0;fillColor=#FF6A00;strokeColor=none;shape=mxgraph.alibaba_cloud.alb_application_load_balancer_01;" vertex="1" parent="KM6vkm5x7V_shXiX3Qa5-1">
          <mxGeometry x="360" y="20" width="47.400000000000006" height="40.2" as="geometry" />
        </mxCell>
        <mxCell id="KM6vkm5x7V_shXiX3Qa5-37" style="edgeStyle=orthogonalEdgeStyle;rounded=0;orthogonalLoop=1;jettySize=auto;html=1;exitX=0.25;exitY=0;exitDx=0;exitDy=0;entryX=-0.021;entryY=0.721;entryDx=0;entryDy=0;entryPerimeter=0;" edge="1" parent="KM6vkm5x7V_shXiX3Qa5-1" source="KM6vkm5x7V_shXiX3Qa5-25" target="KM6vkm5x7V_shXiX3Qa5-2">
          <mxGeometry relative="1" as="geometry" />
        </mxCell>
        <mxCell id="KM6vkm5x7V_shXiX3Qa5-39" style="edgeStyle=orthogonalEdgeStyle;rounded=0;orthogonalLoop=1;jettySize=auto;html=1;exitX=0.75;exitY=0;exitDx=0;exitDy=0;entryX=1.034;entryY=0.746;entryDx=0;entryDy=0;entryPerimeter=0;" edge="1" parent="KM6vkm5x7V_shXiX3Qa5-1" source="KM6vkm5x7V_shXiX3Qa5-24" target="KM6vkm5x7V_shXiX3Qa5-2">
          <mxGeometry relative="1" as="geometry" />
        </mxCell>
        <mxCell id="KM6vkm5x7V_shXiX3Qa5-48" style="edgeStyle=orthogonalEdgeStyle;rounded=0;orthogonalLoop=1;jettySize=auto;html=1;exitX=0;exitY=0.5;exitDx=0;exitDy=0;exitPerimeter=0;entryX=0.75;entryY=1;entryDx=0;entryDy=0;entryPerimeter=0;" edge="1" parent="KM6vkm5x7V_shXiX3Qa5-1" source="KM6vkm5x7V_shXiX3Qa5-29" target="KM6vkm5x7V_shXiX3Qa5-9">
          <mxGeometry relative="1" as="geometry" />
        </mxCell>
        <mxCell id="KM6vkm5x7V_shXiX3Qa5-49" style="edgeStyle=orthogonalEdgeStyle;rounded=0;orthogonalLoop=1;jettySize=auto;html=1;exitX=1;exitY=0.5;exitDx=0;exitDy=0;exitPerimeter=0;entryX=0.25;entryY=1;entryDx=0;entryDy=0;entryPerimeter=0;" edge="1" parent="KM6vkm5x7V_shXiX3Qa5-1" source="KM6vkm5x7V_shXiX3Qa5-29" target="KM6vkm5x7V_shXiX3Qa5-23">
          <mxGeometry relative="1" as="geometry" />
        </mxCell>
        <mxCell id="KM6vkm5x7V_shXiX3Qa5-50" style="edgeStyle=orthogonalEdgeStyle;rounded=0;orthogonalLoop=1;jettySize=auto;html=1;exitX=0.75;exitY=0;exitDx=0;exitDy=0;exitPerimeter=0;entryX=0.25;entryY=0;entryDx=0;entryDy=0;entryPerimeter=0;" edge="1" parent="KM6vkm5x7V_shXiX3Qa5-1" source="KM6vkm5x7V_shXiX3Qa5-9" target="KM6vkm5x7V_shXiX3Qa5-28">
          <mxGeometry relative="1" as="geometry" />
        </mxCell>
        <mxCell id="KM6vkm5x7V_shXiX3Qa5-51" style="edgeStyle=orthogonalEdgeStyle;rounded=0;orthogonalLoop=1;jettySize=auto;html=1;exitX=0.75;exitY=0;exitDx=0;exitDy=0;exitPerimeter=0;entryX=0.75;entryY=0;entryDx=0;entryDy=0;entryPerimeter=0;" edge="1" parent="KM6vkm5x7V_shXiX3Qa5-1" source="KM6vkm5x7V_shXiX3Qa5-23" target="KM6vkm5x7V_shXiX3Qa5-28">
          <mxGeometry relative="1" as="geometry" />
        </mxCell>
        <mxCell id="KM6vkm5x7V_shXiX3Qa5-56" style="edgeStyle=orthogonalEdgeStyle;rounded=0;orthogonalLoop=1;jettySize=auto;html=1;exitX=0.75;exitY=0;exitDx=0;exitDy=0;exitPerimeter=0;entryX=0.25;entryY=0;entryDx=0;entryDy=0;entryPerimeter=0;" edge="1" parent="KM6vkm5x7V_shXiX3Qa5-1" source="KM6vkm5x7V_shXiX3Qa5-8" target="KM6vkm5x7V_shXiX3Qa5-28">
          <mxGeometry relative="1" as="geometry" />
        </mxCell>
        <mxCell id="KM6vkm5x7V_shXiX3Qa5-57" style="edgeStyle=orthogonalEdgeStyle;rounded=0;orthogonalLoop=1;jettySize=auto;html=1;exitX=0.75;exitY=0;exitDx=0;exitDy=0;exitPerimeter=0;entryX=0.25;entryY=0;entryDx=0;entryDy=0;entryPerimeter=0;" edge="1" parent="KM6vkm5x7V_shXiX3Qa5-1" source="KM6vkm5x7V_shXiX3Qa5-7" target="KM6vkm5x7V_shXiX3Qa5-28">
          <mxGeometry relative="1" as="geometry" />
        </mxCell>
        <mxCell id="KM6vkm5x7V_shXiX3Qa5-58" style="edgeStyle=orthogonalEdgeStyle;rounded=0;orthogonalLoop=1;jettySize=auto;html=1;exitX=0.75;exitY=0;exitDx=0;exitDy=0;exitPerimeter=0;entryX=0.25;entryY=0;entryDx=0;entryDy=0;entryPerimeter=0;" edge="1" parent="KM6vkm5x7V_shXiX3Qa5-1" source="KM6vkm5x7V_shXiX3Qa5-14" target="KM6vkm5x7V_shXiX3Qa5-28">
          <mxGeometry relative="1" as="geometry" />
        </mxCell>
        <mxCell id="KM6vkm5x7V_shXiX3Qa5-59" style="edgeStyle=orthogonalEdgeStyle;rounded=0;orthogonalLoop=1;jettySize=auto;html=1;exitX=0.75;exitY=0;exitDx=0;exitDy=0;exitPerimeter=0;entryX=0.75;entryY=0;entryDx=0;entryDy=0;entryPerimeter=0;" edge="1" parent="KM6vkm5x7V_shXiX3Qa5-1" source="KM6vkm5x7V_shXiX3Qa5-21" target="KM6vkm5x7V_shXiX3Qa5-28">
          <mxGeometry relative="1" as="geometry" />
        </mxCell>
        <mxCell id="KM6vkm5x7V_shXiX3Qa5-60" style="edgeStyle=orthogonalEdgeStyle;rounded=0;orthogonalLoop=1;jettySize=auto;html=1;exitX=0.75;exitY=0;exitDx=0;exitDy=0;exitPerimeter=0;entryX=0.75;entryY=0;entryDx=0;entryDy=0;entryPerimeter=0;" edge="1" parent="KM6vkm5x7V_shXiX3Qa5-1" source="KM6vkm5x7V_shXiX3Qa5-20" target="KM6vkm5x7V_shXiX3Qa5-28">
          <mxGeometry relative="1" as="geometry" />
        </mxCell>
        <mxCell id="KM6vkm5x7V_shXiX3Qa5-61" style="edgeStyle=orthogonalEdgeStyle;rounded=0;orthogonalLoop=1;jettySize=auto;html=1;exitX=0.75;exitY=0;exitDx=0;exitDy=0;exitPerimeter=0;entryX=0.75;entryY=0;entryDx=0;entryDy=0;entryPerimeter=0;" edge="1" parent="KM6vkm5x7V_shXiX3Qa5-1" source="KM6vkm5x7V_shXiX3Qa5-19" target="KM6vkm5x7V_shXiX3Qa5-28">
          <mxGeometry relative="1" as="geometry" />
        </mxCell>
        <mxCell id="KM6vkm5x7V_shXiX3Qa5-62" style="edgeStyle=orthogonalEdgeStyle;rounded=0;orthogonalLoop=1;jettySize=auto;html=1;exitX=0.5;exitY=1;exitDx=0;exitDy=0;exitPerimeter=0;entryX=0.5;entryY=0;entryDx=0;entryDy=0;entryPerimeter=0;" edge="1" parent="KM6vkm5x7V_shXiX3Qa5-1" source="KM6vkm5x7V_shXiX3Qa5-28" target="KM6vkm5x7V_shXiX3Qa5-29">
          <mxGeometry relative="1" as="geometry" />
        </mxCell>
        <mxCell id="KM6vkm5x7V_shXiX3Qa5-65" value="Amazon SNS" style="sketch=0;outlineConnect=0;fontColor=#232F3E;gradientColor=none;strokeColor=#ffffff;fillColor=#232F3E;dashed=0;verticalLabelPosition=middle;verticalAlign=bottom;align=center;html=1;whiteSpace=wrap;fontSize=10;fontStyle=1;spacing=3;shape=mxgraph.aws4.productIcon;prIcon=mxgraph.aws4.sns;" vertex="1" parent="KM6vkm5x7V_shXiX3Qa5-1">
          <mxGeometry x="372.5" y="200" width="45" height="61.5" as="geometry" />
        </mxCell>
        <mxCell id="KM6vkm5x7V_shXiX3Qa5-77" style="edgeStyle=orthogonalEdgeStyle;rounded=0;orthogonalLoop=1;jettySize=auto;html=1;exitX=0;exitY=0.5;exitDx=0;exitDy=0;exitPerimeter=0;entryX=0.75;entryY=1;entryDx=0;entryDy=0;entryPerimeter=0;" edge="1" parent="KM6vkm5x7V_shXiX3Qa5-1" source="KM6vkm5x7V_shXiX3Qa5-29" target="KM6vkm5x7V_shXiX3Qa5-8">
          <mxGeometry relative="1" as="geometry" />
        </mxCell>
        <mxCell id="KM6vkm5x7V_shXiX3Qa5-78" style="edgeStyle=orthogonalEdgeStyle;rounded=0;orthogonalLoop=1;jettySize=auto;html=1;exitX=0;exitY=0.5;exitDx=0;exitDy=0;exitPerimeter=0;entryX=0.75;entryY=1;entryDx=0;entryDy=0;entryPerimeter=0;" edge="1" parent="KM6vkm5x7V_shXiX3Qa5-1" source="KM6vkm5x7V_shXiX3Qa5-29" target="KM6vkm5x7V_shXiX3Qa5-7">
          <mxGeometry relative="1" as="geometry" />
        </mxCell>
        <mxCell id="KM6vkm5x7V_shXiX3Qa5-79" style="edgeStyle=orthogonalEdgeStyle;rounded=0;orthogonalLoop=1;jettySize=auto;html=1;exitX=0;exitY=0.5;exitDx=0;exitDy=0;exitPerimeter=0;entryX=0.75;entryY=1;entryDx=0;entryDy=0;entryPerimeter=0;" edge="1" parent="KM6vkm5x7V_shXiX3Qa5-1" source="KM6vkm5x7V_shXiX3Qa5-29" target="KM6vkm5x7V_shXiX3Qa5-14">
          <mxGeometry relative="1" as="geometry" />
        </mxCell>
        <mxCell id="KM6vkm5x7V_shXiX3Qa5-80" style="edgeStyle=orthogonalEdgeStyle;rounded=0;orthogonalLoop=1;jettySize=auto;html=1;exitX=1;exitY=0.5;exitDx=0;exitDy=0;exitPerimeter=0;entryX=0.25;entryY=1;entryDx=0;entryDy=0;entryPerimeter=0;" edge="1" parent="KM6vkm5x7V_shXiX3Qa5-1" source="KM6vkm5x7V_shXiX3Qa5-29" target="KM6vkm5x7V_shXiX3Qa5-19">
          <mxGeometry relative="1" as="geometry">
            <mxPoint x="542" y="351" as="targetPoint" />
          </mxGeometry>
        </mxCell>
        <mxCell id="KM6vkm5x7V_shXiX3Qa5-81" style="edgeStyle=orthogonalEdgeStyle;rounded=0;orthogonalLoop=1;jettySize=auto;html=1;exitX=1;exitY=0.5;exitDx=0;exitDy=0;exitPerimeter=0;entryX=0.25;entryY=1;entryDx=0;entryDy=0;entryPerimeter=0;" edge="1" parent="KM6vkm5x7V_shXiX3Qa5-1" source="KM6vkm5x7V_shXiX3Qa5-29" target="KM6vkm5x7V_shXiX3Qa5-20">
          <mxGeometry relative="1" as="geometry" />
        </mxCell>
        <mxCell id="KM6vkm5x7V_shXiX3Qa5-82" style="edgeStyle=orthogonalEdgeStyle;rounded=0;orthogonalLoop=1;jettySize=auto;html=1;exitX=1;exitY=0.5;exitDx=0;exitDy=0;exitPerimeter=0;entryX=0.25;entryY=1;entryDx=0;entryDy=0;entryPerimeter=0;" edge="1" parent="KM6vkm5x7V_shXiX3Qa5-1" source="KM6vkm5x7V_shXiX3Qa5-29" target="KM6vkm5x7V_shXiX3Qa5-21">
          <mxGeometry relative="1" as="geometry" />
        </mxCell>
        <mxCell id="KM6vkm5x7V_shXiX3Qa5-3" value="" style="sketch=0;points=[[0,0,0],[0.25,0,0],[0.5,0,0],[0.75,0,0],[1,0,0],[0,1,0],[0.25,1,0],[0.5,1,0],[0.75,1,0],[1,1,0],[0,0.25,0],[0,0.5,0],[0,0.75,0],[1,0.25,0],[1,0.5,0],[1,0.75,0]];outlineConnect=0;fontColor=#232F3E;fillColor=#8C4FFF;strokeColor=#ffffff;dashed=0;verticalLabelPosition=bottom;verticalAlign=top;align=center;html=1;fontSize=12;fontStyle=0;aspect=fixed;shape=mxgraph.aws4.resourceIcon;resIcon=mxgraph.aws4.route_53;" vertex="1" parent="1">
          <mxGeometry x="384" y="250" width="59" height="59" as="geometry" />
        </mxCell>
        <mxCell id="KM6vkm5x7V_shXiX3Qa5-4" value="" style="shape=actor;whiteSpace=wrap;html=1;" vertex="1" parent="1">
          <mxGeometry x="394" y="130" width="40" height="60" as="geometry" />
        </mxCell>
        <mxCell id="KM6vkm5x7V_shXiX3Qa5-111" value="" style="endArrow=classic;html=1;rounded=0;" edge="1" parent="1" target="KM6vkm5x7V_shXiX3Qa5-85">
          <mxGeometry width="50" height="50" relative="1" as="geometry">
            <mxPoint x="270" y="870" as="sourcePoint" />
            <mxPoint x="720" y="850" as="targetPoint" />
          </mxGeometry>
        </mxCell>
      </root>
    </mxGraphModel>
  </diagram>
</mxfile>
